<svg viewBox="0 0 400 400" xmlns="http://www.w3.org/2000/svg" id="Crown-Sparkle--Streamline-Free-Illustrations.svg" height="400" width="400"><desc>Crown Sparkle Streamline Illustration: https://streamlinehq.com</desc><g><path d="M6.1831 200C6.1831 334.4413 151.7201 418.4672 268.1497 351.2465C322.1849 320.0493 355.4719 262.3944 355.4719 200C355.4719 65.5587 209.9349 -18.4672 93.5053 48.7535C39.4701 79.9507 6.1831 137.6056 6.1831 200Z" fill="#e8f4fa" stroke="#daedf7" stroke-width="4"></path><path d="M228.8547 333.8344C228.8547 330.2192 207.3516 327.2852 180.8275 327.2852S132.8002 330.2192 132.8002 333.8344S154.3033 340.3836 180.8275 340.3836S228.8547 337.4495 228.8547 333.8344Z" fill="#45413c" opacity=".15" stroke-width="4"></path><path d="M231.3608 197.1533L184.936 104.3036C183.3551 101.1408 178.9434 100.8755 176.9948 103.8259C176.8934 103.9794 176.8013 104.139 176.719 104.3036L130.2941 197.1533L71.4302 146.1353C68.7624 143.8148 64.583 145.2524 63.9073 148.7231C63.7929 149.3105 63.7944 149.9146 63.9118 150.5014L88.9471 279.8649S88.9471 302.835 180.8275 302.835S272.7079 279.8649 272.7079 279.8649L297.7432 150.5014C298.4364 147.0342 295.1164 144.1168 291.7671 145.25C291.2002 145.4418 290.6763 145.7425 290.2248 146.1353Z" fill="#ffe500" stroke-width="4"></path><path d="M231.3608 197.1533L184.936 104.3036C183.3551 101.1408 178.9434 100.8755 176.9948 103.8259C176.8934 103.9794 176.8013 104.139 176.719 104.3036L130.2941 197.1533L71.4302 146.1353C68.7624 143.8148 64.583 145.2524 63.9073 148.7231C63.7929 149.3105 63.7944 149.9146 63.9118 150.5014L88.9471 279.8649S88.9471 302.835 180.8275 302.835S272.7079 279.8649 272.7079 279.8649L297.7432 150.5014C298.4364 147.0342 295.1164 144.1168 291.7671 145.25C291.2002 145.4418 290.6763 145.7425 290.2248 146.1353Z" fill="#ffe500" stroke-width="4"></path><path d="M295.5339 145.6288C293.8371 144.649 291.7057 144.8524 290.2247 146.1353L231.3608 197.1533L184.936 104.3036C183.3551 101.1408 178.9434 100.8755 176.9948 103.8259C176.8934 103.9794 176.8013 104.139 176.719 104.3036L130.2941 197.1533L71.4302 146.1353C68.7624 143.8148 64.583 145.2524 63.9073 148.7231C63.7929 149.3105 63.7944 149.9146 63.9118 150.5014L88.9471 279.8649S88.9471 302.835 180.8275 302.835S272.7035 279.8649 272.7035 279.8649L297.7432 150.5014C298.1263 148.5717 297.2379 146.6123 295.5339 145.6288ZM258.7887 275.9005C256.0075 278.3062 240.7698 288.3963 180.8275 288.3963S105.643 278.3062 102.8662 275.9005L85.441 185.8713C84.9174 183.1449 87.5415 180.874 90.1644 181.7837C90.5955 181.9332 90.9943 182.1631 91.3397 182.4613L131.3725 217.1588C133.1506 218.7016 135.9064 218.1522 136.9568 216.0455L177.6053 134.7616C178.8447 132.2811 182.3045 132.0725 183.8329 134.3861C183.9126 134.5068 183.985 134.6322 184.0497 134.7616L224.6938 216.0498C225.7484 218.1518 228.5003 218.6983 230.278 217.1588L270.3153 182.4657C272.4112 180.6502 275.6864 181.7844 276.2107 184.5072C276.2978 184.9592 276.2974 185.4238 276.2095 185.8756Z" fill="#fff48c" stroke-width="4"></path><path d="M85.0088 259.4839L88.9383 279.8431S88.9383 302.8132 180.8187 302.8132S272.6992 279.8431 272.6992 279.8431L276.6287 259.4839C267.8091 266.2208 244.171 275.2456 180.81 275.2456S93.8284 266.2208 85.0088 259.4839Z" fill="#ebcb00" stroke-width="4"></path><path d="M101.1503 267.0285C95.3682 265.4708 89.9016 262.9177 84.9957 259.4839L88.9252 279.8431S88.9252 287.8549 107.8479 294.4128Z" fill="#ffe500" stroke-width="4"></path><path d="M256.6624 293.3474C272.7079 287.0166 272.7079 279.8431 272.7079 279.8431L276.6374 259.4839C272.1349 262.663 267.1342 265.0696 261.8407 266.605Z" fill="#ffe500" stroke-width="4"></path><path d="M85.0088 259.4839C93.8284 266.2208 117.4665 275.2499 180.8275 275.2499S267.8266 266.2208 276.6461 259.4839" fill="none" stroke="#45413c" stroke-linecap="round" stroke-linejoin="round" stroke-width="4"></path><path d="M231.3608 197.1533L184.936 104.3036C183.3551 101.1408 178.9434 100.8755 176.9948 103.8259C176.8934 103.9794 176.8013 104.139 176.719 104.3036L130.2941 197.1533L71.4302 146.1353C68.7624 143.8148 64.583 145.2524 63.9073 148.7231C63.7929 149.3105 63.7944 149.9146 63.9118 150.5014L88.9471 279.8649S88.9471 302.835 180.8275 302.835S272.7079 279.8649 272.7079 279.8649L297.7432 150.5014C298.4364 147.0342 295.1164 144.1168 291.7671 145.25C291.2002 145.4418 290.6763 145.7425 290.2248 146.1353Z" fill="none" stroke="#45413c" stroke-linecap="round" stroke-linejoin="round" stroke-width="4"></path><path d="M267.6214 85.9179C268.8187 80.7248 272.8726 76.6692 278.0651 75.4698L299.0225 70.6322C300.3299 70.319 300.8081 68.708 299.8832 67.7323C299.6505 67.4868 299.3515 67.3141 299.0225 67.2353L278.0651 62.3977C272.8726 61.1995 268.8174 57.146 267.617 51.9539L262.7794 30.9966C262.4663 29.6892 260.8552 29.211 259.8795 30.1358C259.634 30.3686 259.4613 30.6676 259.3825 30.9966L254.5493 51.9539C253.3504 57.1476 249.2949 61.2031 244.1012 62.402L223.1438 67.2353C221.8364 67.5484 221.3582 69.1595 222.2831 70.1352C222.5158 70.3807 222.8148 70.5534 223.1438 70.6321L244.1012 75.4698C249.2949 76.6687 253.3504 80.7242 254.5493 85.9179L259.3825 106.8752C259.6957 108.1827 261.3067 108.6609 262.2824 107.736C262.5279 107.5032 262.7006 107.2042 262.7794 106.8752Z" fill="#fff48c" stroke="#b58b00" stroke-linecap="round" stroke-linejoin="round" stroke-width="4"></path><path d="M103.3377 106.05C104.2885 101.9257 107.509 98.7052 111.6334 97.7544L128.2639 93.9166C129.3008 93.6866 129.6998 92.4204 128.9822 91.6374C128.7909 91.4288 128.5402 91.284 128.2639 91.2227L111.629 87.3849C107.5041 86.4351 104.2832 83.2142 103.3334 79.0893L99.4999 62.4675C99.2549 61.4306 97.9792 61.0479 97.2038 61.7786C97.0067 61.9644 96.8684 62.2039 96.806 62.4675L92.9682 79.0937C92.0222 83.2207 88.7996 86.4433 84.6726 87.3893L68.0465 91.2271C67.0096 91.4722 66.6269 92.7478 67.3576 93.5232C67.5433 93.7204 67.7829 93.8587 68.0465 93.921L84.6726 97.7588C88.798 98.7077 92.0194 101.929 92.9682 106.0544L96.806 122.6893C97.0361 123.7262 98.3023 124.1252 99.0852 123.4076C99.2939 123.2163 99.4386 122.9656 99.4999 122.6893Z" fill="#fff48c" stroke="#b58b00" stroke-linecap="round" stroke-linejoin="round" stroke-width="4"></path><path d="M372.7923 207.9987C373.566 204.6756 376.1619 202.0814 379.4855 201.3098L392.955 198.2012C393.7952 198.0009 394.1036 196.9662 393.5101 196.3386C393.3602 196.1801 393.1672 196.0687 392.955 196.0181L379.4855 192.892C376.1496 192.1204 373.5442 189.5167 372.7704 186.1813L369.6661 172.7162C369.4659 171.8759 368.4312 171.5675 367.8036 172.161C367.645 172.311 367.5337 172.5039 367.4831 172.7162L364.3788 186.1813C363.606 189.5172 361.0001 192.1213 357.6637 192.892L344.203 195.9963C343.3627 196.1965 343.0543 197.2312 343.6478 197.8588C343.7978 198.0174 343.9907 198.1287 344.203 198.1793L357.6637 201.288C361 202.0573 363.6051 204.6624 364.3744 207.9987L367.4831 221.4682C367.6833 222.3084 368.718 222.6168 369.3456 222.0233C369.5042 221.8734 369.6155 221.6804 369.6661 221.4682Z" fill="#fff48c" stroke="#b58b00" stroke-linecap="round" stroke-linejoin="round" stroke-width="4"></path></g></svg>